<svg width="310" height="206" viewBox="0 0 310 206" fill="none" xmlns="http://www.w3.org/2000/svg">
<rect x="4.5" y="21.5" width="139" height="139" stroke="#212322" stroke-width="9"/>
<rect x="166.5" y="21.5" width="139" height="139" fill="#212322" stroke="#212322" stroke-width="9"/>
<path d="M102.801 36.9091H116.011V109.139C116.011 116.597 114.254 123.255 110.738 129.114C107.258 134.938 102.339 139.537 95.983 142.911C89.6264 146.249 82.169 147.918 73.6108 147.918C65.0526 147.918 57.5952 146.249 51.2386 142.911C44.8821 139.537 39.946 134.938 36.4304 129.114C32.9503 123.255 31.2102 116.597 31.2102 109.139V36.9091H44.4205V108.074C44.4205 113.401 45.5923 118.141 47.9361 122.296C50.2798 126.415 53.6179 129.665 57.9503 132.044C62.3182 134.388 67.5384 135.56 73.6108 135.56C79.6832 135.56 84.9034 134.388 89.2713 132.044C93.6392 129.665 96.9773 126.415 99.2855 122.296C101.629 118.141 102.801 113.401 102.801 108.074V36.9091Z" fill="#212322"/>
<path d="M206.21 146V36.9091H219.42V134.281H270.131V146H206.21Z" fill="#FAFAFA"/>
<path d="M25.3395 190.453C25.2732 189.833 24.9938 189.35 24.5014 189.004C24.0137 188.659 23.3793 188.486 22.598 188.486C22.0488 188.486 21.5777 188.569 21.1847 188.734C20.7917 188.9 20.491 189.125 20.2827 189.409C20.0743 189.693 19.9678 190.018 19.9631 190.382C19.9631 190.685 20.0317 190.948 20.169 191.17C20.3111 191.393 20.5028 191.582 20.7443 191.739C20.9858 191.89 21.2533 192.018 21.5469 192.122C21.8404 192.226 22.1364 192.314 22.4347 192.385L23.7983 192.726C24.3475 192.854 24.8755 193.027 25.3821 193.244C25.8935 193.462 26.3504 193.737 26.7528 194.068C27.16 194.4 27.482 194.8 27.7188 195.268C27.9555 195.737 28.0739 196.286 28.0739 196.916C28.0739 197.768 27.8561 198.519 27.4205 199.168C26.9848 199.812 26.3551 200.316 25.5312 200.68C24.7121 201.04 23.7202 201.22 22.5554 201.22C21.4238 201.22 20.4413 201.045 19.608 200.695C18.7794 200.344 18.1307 199.833 17.6619 199.161C17.1979 198.488 16.947 197.669 16.9091 196.703H19.5014C19.5393 197.21 19.6955 197.631 19.9702 197.967C20.2448 198.304 20.6023 198.554 21.0426 198.72C21.4877 198.886 21.9848 198.969 22.5341 198.969C23.107 198.969 23.6089 198.884 24.0398 198.713C24.4754 198.538 24.8163 198.296 25.0625 197.989C25.3087 197.676 25.4342 197.312 25.4389 196.895C25.4342 196.516 25.3229 196.204 25.1051 195.957C24.8873 195.706 24.5819 195.498 24.1889 195.332C23.8007 195.162 23.3461 195.01 22.8253 194.878L21.1705 194.452C19.9725 194.144 19.0256 193.678 18.3295 193.053C17.6383 192.423 17.2926 191.587 17.2926 190.545C17.2926 189.688 17.5246 188.938 17.9886 188.294C18.4574 187.65 19.0942 187.151 19.8991 186.795C20.7041 186.436 21.6155 186.256 22.6335 186.256C23.6657 186.256 24.5701 186.436 25.3466 186.795C26.1278 187.151 26.741 187.645 27.1861 188.28C27.6312 188.91 27.8608 189.634 27.875 190.453H25.3395ZM39.7837 188.663V186.455H51.3888V188.663H46.8931V201H44.2795V188.663H39.7837ZM62.6317 186.455H65.6076L69.1658 192.889H69.3079L72.8661 186.455H75.842L70.5508 195.574V201H67.9229V195.574L62.6317 186.455ZM87.7081 201V186.455H90.343V198.791H96.7493V201H87.7081ZM109.036 201V186.455H118.496V188.663H111.671V192.612H118.006V194.821H111.671V198.791H118.553V201H109.036ZM146.146 201V186.455H148.781V198.791H155.187V201H146.146ZM167.474 201V186.455H176.934V188.663H170.109V192.612H176.444V194.821H170.109V198.791H176.991V201H167.474ZM191.49 201H188.678L193.798 186.455H197.051L202.179 201H199.366L195.482 189.438H195.368L191.49 201ZM191.582 195.297H199.253V197.413H191.582V195.297ZM211.698 188.663V186.455H223.303V188.663H218.807V201H216.194V188.663H211.698ZM235.54 201V186.455H238.175V192.612H244.915V186.455H247.557V201H244.915V194.821H238.175V201H235.54ZM260.423 201V186.455H269.883V188.663H263.058V192.612H269.393V194.821H263.058V198.791H269.94V201H260.423ZM282.571 201V186.455H288.026C289.143 186.455 290.081 186.649 290.838 187.037C291.601 187.425 292.176 187.97 292.564 188.67C292.957 189.366 293.154 190.179 293.154 191.107C293.154 192.039 292.955 192.849 292.557 193.536C292.164 194.217 291.584 194.745 290.817 195.119C290.05 195.489 289.108 195.673 287.99 195.673H284.105V193.486H287.635C288.289 193.486 288.824 193.396 289.24 193.216C289.657 193.031 289.965 192.764 290.164 192.413C290.367 192.058 290.469 191.623 290.469 191.107C290.469 190.59 290.367 190.15 290.164 189.786C289.96 189.416 289.65 189.137 289.233 188.947C288.817 188.753 288.279 188.656 287.621 188.656H285.206V201H282.571ZM290.086 194.409L293.686 201H290.746L287.209 194.409H290.086Z" fill="#212322"/>
</svg>
